<?xml version="1.0" encoding="iso-8859-1"?>
<!-- Generator: Adobe Illustrator 19.0.0, SVG Export Plug-In . SVG Version: 6.00 Build 0)  -->
<svg version="1.1" id="Layer_1" xmlns="http://www.w3.org/2000/svg" xmlns:xlink="http://www.w3.org/1999/xlink" x="0px" y="0px"
	 viewBox="0 0 330.001 330.001" style="enable-background:new 0 0 330.001 330.001;" xml:space="preserve">
<path id="XMLID_240_" d="M330.001,70.491c0-11.99-4.67-23.261-13.147-31.738c-17.498-17.499-45.976-17.498-63.478,0.001
	L128.66,163.468c-0.546-0.013-1.09-0.04-1.638-0.04c-17.424,0-33.791,6.771-46.087,19.066c-10.568,10.569-24.648,16.39-39.644,16.39
	c-7.162,0-14.147-1.33-20.761-3.953c-4.794-1.902-10.223-1.207-14.381,1.833c-4.16,3.04-6.469,8.003-6.113,13.145
	c1.689,24.454,12.151,47.453,29.461,64.761c19.154,19.154,44.655,29.703,71.807,29.703c27.15,0,52.652-10.549,71.807-29.703
	c13.12-13.121,19.447-30.488,19.02-47.718l124.722-124.721C325.331,93.752,330.001,82.48,330.001,70.491z M151.897,253.456
	c-13.488,13.488-31.456,20.916-50.594,20.916s-37.105-7.428-50.594-20.916c-7.109-7.109-12.578-15.583-16.139-24.83
	c2.227,0.171,4.468,0.258,6.72,0.258c23.01,0,44.623-8.941,60.857-25.176c6.629-6.629,15.463-10.28,24.874-10.28
	c1.353,0,2.69,0.084,4.014,0.233c0.736,0.163,1.48,0.272,2.229,0.324c7.029,1.247,13.494,4.586,18.633,9.725
	c5.262,5.262,8.496,11.792,9.721,18.615c0.052,0.762,0.162,1.518,0.33,2.267C163.114,234.878,159.769,245.583,151.897,253.456z
	 M295.639,81.017L182.408,194.247c-2.589-4.176-5.676-8.129-9.297-11.751c-3.59-3.59-7.534-6.693-11.743-9.311l113.22-113.219
	c5.807-5.803,15.25-5.805,21.053-0.001c2.811,2.811,4.36,6.549,4.36,10.525C300.001,74.467,298.452,78.205,295.639,81.017z"/>
<g>
</g>
<g>
</g>
<g>
</g>
<g>
</g>
<g>
</g>
<g>
</g>
<g>
</g>
<g>
</g>
<g>
</g>
<g>
</g>
<g>
</g>
<g>
</g>
<g>
</g>
<g>
</g>
<g>
</g>
</svg>
