<?xml version="1.0" encoding="iso-8859-1"?>
<!-- Generator: Adobe Illustrator 19.0.0, SVG Export Plug-In . SVG Version: 6.00 Build 0)  -->
<svg version="1.1" id="Layer_1" xmlns="http://www.w3.org/2000/svg" xmlns:xlink="http://www.w3.org/1999/xlink" x="0px" y="0px"
	 viewBox="0 0 330 330" style="enable-background:new 0 0 330 330;" xml:space="preserve">
<path id="XMLID_28_" d="M315,240h-45V81.213l55.606-55.606c5.858-5.858,5.858-15.355,0-21.213c-5.857-5.858-15.355-5.858-21.213,0
	L248.787,60H90V15c0-8.284-6.716-15-15-15c-8.284,0-15,6.716-15,15v45H15C6.716,60,0,66.716,0,75s6.716,15,15,15h45v158.787
	L4.394,304.394c-5.858,5.858-5.858,15.355,0,21.213C7.322,328.536,11.161,330,15,330c3.839,0,7.678-1.464,10.606-4.394L81.213,270
	H240v45c0,8.284,6.716,15,15,15c8.284,0,15-6.716,15-15v-45h45c8.284,0,15-6.716,15-15S323.284,240,315,240z M90,90h128.787
	L90,218.787V90z M240,111.213V240H111.213L240,111.213z"/>
<g>
</g>
<g>
</g>
<g>
</g>
<g>
</g>
<g>
</g>
<g>
</g>
<g>
</g>
<g>
</g>
<g>
</g>
<g>
</g>
<g>
</g>
<g>
</g>
<g>
</g>
<g>
</g>
<g>
</g>
</svg>
