<?xml version="1.0" encoding="iso-8859-1"?>
<!-- Generator: Adobe Illustrator 19.0.0, SVG Export Plug-In . SVG Version: 6.00 Build 0)  -->
<svg version="1.1" id="Layer_1" xmlns="http://www.w3.org/2000/svg" xmlns:xlink="http://www.w3.org/1999/xlink" x="0px" y="0px"
	 viewBox="0 0 330.001 330.001" style="enable-background:new 0 0 330.001 330.001;" xml:space="preserve">
<path id="XMLID_312_" d="M325.607,114.394l-110-110c-5.857-5.858-15.355-5.858-21.213,0l-50,50c-5.858,5.858-5.858,15.355,0,21.213
	l14.695,14.695l-90.295,41.043c-3.274,1.488-5.905,4.104-7.413,7.37l-60,130c-2.633,5.706-1.431,12.449,3.013,16.892l19.996,19.996
	c0.002,0.001,0.003,0.004,0.004,0.005c0.001,0.001,0.003,0.003,0.005,0.004l19.995,19.995c2.875,2.875,6.713,4.394,10.61,4.394
	c2.126,0,4.268-0.452,6.282-1.381l130-60c3.266-1.507,5.881-4.138,7.37-7.413l41.043-90.295l14.695,14.695
	c2.929,2.929,6.768,4.394,10.606,4.394c3.839,0,7.678-1.464,10.606-4.394l50-50C331.465,129.749,331.465,120.252,325.607,114.394z
	 M173.653,243.717l-115.441,53.28l-1.999-1.999l79.154-79.166c5.857-5.858,5.856-15.356-0.002-21.213
	c-5.858-5.857-15.356-5.857-21.213,0.002L35,273.786l-1.997-1.996l53.28-115.441l95.461-43.392l35.3,35.3L173.653,243.717z
	 M265.001,153.787L176.214,65l28.787-28.787L293.787,125L265.001,153.787z"/>
<g>
</g>
<g>
</g>
<g>
</g>
<g>
</g>
<g>
</g>
<g>
</g>
<g>
</g>
<g>
</g>
<g>
</g>
<g>
</g>
<g>
</g>
<g>
</g>
<g>
</g>
<g>
</g>
<g>
</g>
</svg>
