<?xml version="1.0" encoding="iso-8859-1"?>
<!-- Generator: Adobe Illustrator 18.0.0, SVG Export Plug-In . SVG Version: 6.00 Build 0)  -->
<!DOCTYPE svg PUBLIC "-//W3C//DTD SVG 1.1//EN" "http://www.w3.org/Graphics/SVG/1.1/DTD/svg11.dtd">
<svg version="1.1" id="Capa_1" xmlns="http://www.w3.org/2000/svg" xmlns:xlink="http://www.w3.org/1999/xlink" x="0px" y="0px"
	 viewBox="0 0 496.772 496.772" style="enable-background:new 0 0 496.772 496.772;" xml:space="preserve">
<path id="XMLID_584_" d="M489.995,235.012L371.965,154.24c-5.321-3.654-12.243-4.045-17.951-1.035
	c-5.709,3.006-9.282,8.941-9.282,15.393v31.484h-48.06l-0.017-48.074h31.517c6.471,0,12.404-3.59,15.412-9.332
	c3.007-5.74,2.57-12.66-1.116-17.981L260.645,6.697C257.732,2.492,252.93-0.016,247.803,0c-5.11,0.017-9.895,2.555-12.789,6.777
	l-80.772,118.029c-3.657,5.322-4.044,12.227-1.038,17.951c3.008,5.707,8.943,9.281,15.395,9.281h31.485v48.043H152.04v-31.484
	c0-6.451-3.574-12.387-9.282-15.393c-5.709-3.01-12.628-2.619-17.948,1.035L6.777,235.012c-4.219,2.896-6.761,7.683-6.776,12.793
	c-0.015,5.125,2.492,9.928,6.695,12.838l117.999,81.824c5.319,3.688,12.24,4.125,17.983,1.115c5.739-3.006,9.33-8.939,9.33-15.408
	v-31.518l48.075,0.016v48.061h-31.485c-6.451,0-12.387,3.574-15.395,9.281c-3.006,5.725-2.619,12.63,1.038,17.949l80.772,118.031
	c2.894,4.221,7.679,6.762,12.789,6.777c5.127,0.016,9.929-2.492,12.842-6.695l81.823-117.998c3.686-5.321,4.123-12.242,1.116-17.984
	c-3.008-5.74-8.941-9.33-15.412-9.33h-31.517l0.017-48.092l48.092-0.016v31.518c0,6.469,3.591,12.402,9.332,15.408
	c5.738,3.01,12.66,2.572,17.98-1.115l117.999-81.824c4.204-2.91,6.71-7.713,6.695-12.838
	C496.754,242.694,494.217,237.908,489.995,235.012z"/>
<g>
</g>
<g>
</g>
<g>
</g>
<g>
</g>
<g>
</g>
<g>
</g>
<g>
</g>
<g>
</g>
<g>
</g>
<g>
</g>
<g>
</g>
<g>
</g>
<g>
</g>
<g>
</g>
<g>
</g>
</svg>
