<?xml version="1.0" encoding="iso-8859-1"?>
<!-- Generator: Adobe Illustrator 19.0.0, SVG Export Plug-In . SVG Version: 6.00 Build 0)  -->
<svg version="1.1" id="Layer_1" xmlns="http://www.w3.org/2000/svg" xmlns:xlink="http://www.w3.org/1999/xlink" x="0px" y="0px"
	 viewBox="0 0 330 330" style="enable-background:new 0 0 330 330;" xml:space="preserve">
<g id="XMLID_138_">
	<path id="XMLID_169_" d="M165,0C74.019,0,0,74.019,0,165s74.019,165,165,165c24.814,0,45-20.187,45-45s-20.186-45-45-45
		c-8.271,0-15-6.729-15-15s6.729-15,15-15h146.996c7.134,0,13.28-5.024,14.7-12.015C328.889,187.19,330,176.093,330,165
		C330,74.019,255.981,0,165,0z M299.174,180H165c-24.813,0-45,20.187-45,45s20.187,45,45,45c8.271,0,15,6.729,15,15s-6.729,15-15,15
		c-74.439,0-135-60.561-135-135S90.561,30,165,30s135,60.561,135,135C300,170.015,299.724,175.029,299.174,180z"/>
	<circle id="XMLID_222_" cx="226.413" cy="103.588" r="22.5"/>
	<circle id="XMLID_223_" cx="165.002" cy="78.15" r="22.5"/>
	<circle id="XMLID_224_" cx="103.589" cy="103.587" r="22.5"/>
</g>
<g>
</g>
<g>
</g>
<g>
</g>
<g>
</g>
<g>
</g>
<g>
</g>
<g>
</g>
<g>
</g>
<g>
</g>
<g>
</g>
<g>
</g>
<g>
</g>
<g>
</g>
<g>
</g>
<g>
</g>
</svg>
