<?xml version="1.0" encoding="iso-8859-1"?>
<!-- Generator: Adobe Illustrator 19.0.0, SVG Export Plug-In . SVG Version: 6.00 Build 0)  -->
<svg version="1.1" id="Layer_1" xmlns="http://www.w3.org/2000/svg" xmlns:xlink="http://www.w3.org/1999/xlink" x="0px" y="0px"
	 viewBox="0 0 330.003 330.003" style="enable-background:new 0 0 330.003 330.003;" xml:space="preserve">
<path id="XMLID_225_" d="M271.101,81.296l-59.159-26.293L271.1,28.711c7.57-3.364,10.98-12.229,7.615-19.799
	c-3.365-7.571-12.231-10.979-19.799-7.615l-68.908,30.625V15.003c0-8.284-6.716-15-15-15h-70c-8.284,0-15,6.716-15,15v65.192
	c-24.112,16.164-40.018,43.662-40.018,74.808c0,0.118,0.015,0.231,0.018,0.348v159.652c0,8.284,6.716,15,15,15h150
	c8.284,0,15-6.716,15-15v-160c0-0.157-0.019-0.309-0.023-0.465c-0.158-30.939-16.004-58.234-39.977-74.32v-2.134l68.908,30.625
	c1.981,0.88,4.048,1.297,6.084,1.297c5.747,0,11.231-3.322,13.715-8.912C282.08,93.525,278.671,84.66,271.101,81.296z
	 M198.092,140.003H81.89c6.678-25.849,30.195-45,58.102-45C167.898,95.003,191.415,114.154,198.092,140.003z M200.008,300.003h-120
	v-130h120V300.003z M139.992,65.003c-6.866,0-13.554,0.776-19.983,2.239V30.003h40v24.704c-0.001,0.019,0,0.038,0,0.058v0.477
	c0,0.019-0.001,0.038,0,0.058V67.25C153.569,65.781,146.87,65.003,139.992,65.003z"/>
<g>
</g>
<g>
</g>
<g>
</g>
<g>
</g>
<g>
</g>
<g>
</g>
<g>
</g>
<g>
</g>
<g>
</g>
<g>
</g>
<g>
</g>
<g>
</g>
<g>
</g>
<g>
</g>
<g>
</g>
</svg>
