<?xml version="1.0" encoding="iso-8859-1"?>
<!-- Generator: Adobe Illustrator 19.0.0, SVG Export Plug-In . SVG Version: 6.00 Build 0)  -->
<svg version="1.1" id="Capa_1" xmlns="http://www.w3.org/2000/svg" xmlns:xlink="http://www.w3.org/1999/xlink" x="0px" y="0px"
	 viewBox="0 0 512 512" style="enable-background:new 0 0 512 512;" xml:space="preserve">
<g>
	<g>
		<path d="M416,85.333H96c-5.888,0-10.667,4.779-10.667,10.667v106.667c0,5.888,4.779,10.667,10.667,10.667
			s10.667-4.779,10.667-10.667c0-17.643,14.357-32,32-32h74.667v202.667c0,17.643-14.357,32-32,32
			c-5.888,0-10.667,4.779-10.667,10.667c0,5.888,4.779,10.667,10.667,10.667h149.333c0.149,0,0.32,0.021,0.427,0
			c5.888,0,10.667-4.779,10.667-10.667c0-5.888-4.779-10.667-10.667-10.667h-0.213c-0.043,0-0.128,0-0.213,0
			c-17.643,0-32-14.357-32-32V170.667h74.667c17.643,0,32,14.357,32,32c0,5.888,4.779,10.667,10.667,10.667
			c5.888,0,10.667-4.779,10.667-10.667V96C426.667,90.112,421.888,85.333,416,85.333z"/>
	</g>
</g>
<g>
	<g>
		<path d="M160,21.333h-42.667c-5.888,0-10.667,4.779-10.667,10.667s4.779,10.667,10.667,10.667H160
			c5.888,0,10.667-4.779,10.667-10.667S165.888,21.333,160,21.333z"/>
	</g>
</g>
<g>
	<g>
		<path d="M277.333,21.333h-42.667C228.779,21.333,224,26.112,224,32s4.779,10.667,10.667,10.667h42.667
			C283.221,42.667,288,37.888,288,32S283.221,21.333,277.333,21.333z"/>
	</g>
</g>
<g>
	<g>
		<path d="M394.667,21.333H352c-5.888,0-10.667,4.779-10.667,10.667S346.112,42.667,352,42.667h42.667
			c5.888,0,10.667-4.779,10.667-10.667S400.555,21.333,394.667,21.333z"/>
	</g>
</g>
<g>
	<g>
		<path d="M160,469.333h-42.667c-5.888,0-10.667,4.779-10.667,10.667c0,5.888,4.779,10.667,10.667,10.667H160
			c5.888,0,10.667-4.779,10.667-10.667C170.667,474.112,165.888,469.333,160,469.333z"/>
	</g>
</g>
<g>
	<g>
		<path d="M277.333,469.333h-42.667c-5.888,0-10.667,4.779-10.667,10.667c0,5.888,4.779,10.667,10.667,10.667h42.667
			c5.888,0,10.667-4.779,10.667-10.667C288,474.112,283.221,469.333,277.333,469.333z"/>
	</g>
</g>
<g>
	<g>
		<path d="M394.667,469.333H352c-5.888,0-10.667,4.779-10.667,10.667c0,5.888,4.779,10.667,10.667,10.667h42.667
			c5.888,0,10.667-4.779,10.667-10.667C405.333,474.112,400.555,469.333,394.667,469.333z"/>
	</g>
</g>
<g>
	<g>
		<path d="M32,341.333c-5.888,0-10.667,4.779-10.667,10.667v42.667c0,5.888,4.779,10.667,10.667,10.667s10.667-4.779,10.667-10.667
			V352C42.667,346.112,37.888,341.333,32,341.333z"/>
	</g>
</g>
<g>
	<g>
		<path d="M32,224c-5.888,0-10.667,4.779-10.667,10.667v42.667C21.333,283.221,26.112,288,32,288s10.667-4.779,10.667-10.667
			v-42.667C42.667,228.779,37.888,224,32,224z"/>
	</g>
</g>
<g>
	<g>
		<path d="M32,106.667c-5.888,0-10.667,4.779-10.667,10.667V160c0,5.888,4.779,10.667,10.667,10.667S42.667,165.888,42.667,160
			v-42.667C42.667,111.445,37.888,106.667,32,106.667z"/>
	</g>
</g>
<g>
	<g>
		<path d="M480,341.333c-5.888,0-10.667,4.779-10.667,10.667v42.667c0,5.888,4.779,10.667,10.667,10.667
			c5.888,0,10.667-4.779,10.667-10.667V352C490.667,346.112,485.888,341.333,480,341.333z"/>
	</g>
</g>
<g>
	<g>
		<path d="M480,224c-5.888,0-10.667,4.779-10.667,10.667v42.667c0,5.888,4.779,10.667,10.667,10.667
			c5.888,0,10.667-4.779,10.667-10.667v-42.667C490.667,228.779,485.888,224,480,224z"/>
	</g>
</g>
<g>
	<g>
		<path d="M480,106.667c-5.888,0-10.667,4.779-10.667,10.667V160c0,5.888,4.779,10.667,10.667,10.667
			c5.888,0,10.667-4.779,10.667-10.667v-42.667C490.667,111.445,485.888,106.667,480,106.667z"/>
	</g>
</g>
<g>
	<g>
		<path d="M501.333,0h-42.667C452.779,0,448,4.779,448,10.667v42.667C448,59.221,452.779,64,458.667,64h42.667
			C507.221,64,512,59.221,512,53.333V10.667C512,4.779,507.221,0,501.333,0z"/>
	</g>
</g>
<g>
	<g>
		<path d="M53.333,0H10.667C4.779,0,0,4.779,0,10.667v42.667C0,59.221,4.779,64,10.667,64h42.667C59.221,64,64,59.221,64,53.333
			V10.667C64,4.779,59.221,0,53.333,0z"/>
	</g>
</g>
<g>
	<g>
		<path d="M501.333,448h-42.667c-5.888,0-10.667,4.779-10.667,10.667v42.667c0,5.888,4.779,10.667,10.667,10.667h42.667
			c5.888,0,10.667-4.779,10.667-10.667v-42.667C512,452.779,507.221,448,501.333,448z"/>
	</g>
</g>
<g>
	<g>
		<path d="M53.333,448H10.667C4.779,448,0,452.779,0,458.667v42.667C0,507.221,4.779,512,10.667,512h42.667
			C59.221,512,64,507.221,64,501.333v-42.667C64,452.779,59.221,448,53.333,448z"/>
	</g>
</g>
<g>
</g>
<g>
</g>
<g>
</g>
<g>
</g>
<g>
</g>
<g>
</g>
<g>
</g>
<g>
</g>
<g>
</g>
<g>
</g>
<g>
</g>
<g>
</g>
<g>
</g>
<g>
</g>
<g>
</g>
</svg>
