<?xml version="1.0" encoding="iso-8859-1"?>
<!-- Generator: Adobe Illustrator 19.0.0, SVG Export Plug-In . SVG Version: 6.00 Build 0)  -->
<svg version="1.1" id="Layer_1" xmlns="http://www.w3.org/2000/svg" xmlns:xlink="http://www.w3.org/1999/xlink" x="0px" y="0px"
	 viewBox="0 0 330 330" style="enable-background:new 0 0 330 330;" xml:space="preserve">
<path id="XMLID_244_" d="M266.213,165l59.393-59.394C328.42,102.794,330,98.978,330,95c0-3.978-1.58-7.794-4.394-10.606l-80-80
	c-5.857-5.858-15.355-5.858-21.213,0l-59.394,59.393L105.606,4.394c-5.857-5.858-15.355-5.858-21.213,0l-80,80
	C1.581,87.207,0,91.022,0,95c0,3.979,1.581,7.794,4.394,10.606L63.788,165L4.394,224.394C1.581,227.207,0,231.022,0,235v80
	c0,8.284,6.716,15,15,15h80c3.978,0,7.794-1.581,10.606-4.394l59.394-59.393l59.394,59.393c2.929,2.929,6.768,4.394,10.606,4.394
	s7.678-1.464,10.606-4.394l80-80C328.42,242.794,330,238.978,330,235c0-3.979-1.58-7.794-4.394-10.606L266.213,165z M235.001,36.214
	L293.788,95l-48.787,48.787L186.213,85L235.001,36.214z M36.213,95L95,36.214L143.788,85l-58.787,58.787L36.213,95z M88.787,300H30
	v-58.787l65.58-65.58c0.009-0.009,0.02-0.017,0.029-0.026c0.009-0.009,0.017-0.02,0.026-0.029l69.366-69.366L223.788,165L88.787,300
	z M235.001,293.787L186.213,245l58.787-58.787L293.788,235L235.001,293.787z"/>
<g>
</g>
<g>
</g>
<g>
</g>
<g>
</g>
<g>
</g>
<g>
</g>
<g>
</g>
<g>
</g>
<g>
</g>
<g>
</g>
<g>
</g>
<g>
</g>
<g>
</g>
<g>
</g>
<g>
</g>
</svg>
